<?xml version="1.0" encoding="UTF-8" standalone="no"?>
<svg
   xmlns:dc="http://purl.org/dc/elements/1.1/"
   xmlns:cc="http://creativecommons.org/ns#"
   xmlns:rdf="http://www.w3.org/1999/02/22-rdf-syntax-ns#"
   xmlns:svg="http://www.w3.org/2000/svg"
   xmlns="http://www.w3.org/2000/svg"
   xmlns:sodipodi="http://sodipodi.sourceforge.net/DTD/sodipodi-0.dtd"
   xmlns:inkscape="http://www.inkscape.org/namespaces/inkscape"
   sodipodi:docname="Setting.svg"
   inkscape:version="1.0 (4035a4fb49, 2020-05-01)"
   id="svg831"
   version="1.1"
   viewBox="0 0 22.577778 22.577778"
   height="64pt"
   width="64pt"
   inkscape:export-filename="D:\Project ++\Filled Line\png\Team.png"
   inkscape:export-xdpi="576"
   inkscape:export-ydpi="576">
  <defs
     id="defs825">
    <pattern
       y="0"
       x="0"
       height="6"
       width="6"
       patternUnits="userSpaceOnUse"
       id="EMFhbasepattern" />
    <pattern
       y="0"
       x="0"
       height="6"
       width="6"
       patternUnits="userSpaceOnUse"
       id="EMFhbasepattern-9" />
    <pattern
       y="0"
       x="0"
       height="6"
       width="6"
       patternUnits="userSpaceOnUse"
       id="EMFhbasepattern-0" />
    <pattern
       y="0"
       x="0"
       height="6"
       width="6"
       patternUnits="userSpaceOnUse"
       id="EMFhbasepattern-7" />
    <pattern
       y="0"
       x="0"
       height="6"
       width="6"
       patternUnits="userSpaceOnUse"
       id="EMFhbasepattern-2" />
    <pattern
       y="0"
       x="0"
       height="6"
       width="6"
       patternUnits="userSpaceOnUse"
       id="EMFhbasepattern-98" />
    <pattern
       y="0"
       x="0"
       height="6"
       width="6"
       patternUnits="userSpaceOnUse"
       id="EMFhbasepattern-6" />
    <pattern
       y="0"
       x="0"
       height="6"
       width="6"
       patternUnits="userSpaceOnUse"
       id="EMFhbasepattern-01" />
    <pattern
       y="0"
       x="0"
       height="6"
       width="6"
       patternUnits="userSpaceOnUse"
       id="EMFhbasepattern-07" />
    <pattern
       y="0"
       x="0"
       height="6"
       width="6"
       patternUnits="userSpaceOnUse"
       id="EMFhbasepattern-8" />
    <pattern
       y="0"
       x="0"
       height="6"
       width="6"
       patternUnits="userSpaceOnUse"
       id="EMFhbasepattern-4" />
    <pattern
       y="0"
       x="0"
       height="6"
       width="6"
       patternUnits="userSpaceOnUse"
       id="EMFhbasepattern-40" />
    <pattern
       y="0"
       x="0"
       height="6"
       width="6"
       patternUnits="userSpaceOnUse"
       id="EMFhbasepattern-08" />
    <pattern
       y="0"
       x="0"
       height="6"
       width="6"
       patternUnits="userSpaceOnUse"
       id="EMFhbasepattern-04" />
    <pattern
       y="0"
       x="0"
       height="6"
       width="6"
       patternUnits="userSpaceOnUse"
       id="EMFhbasepattern-014" />
    <pattern
       y="0"
       x="0"
       height="6"
       width="6"
       patternUnits="userSpaceOnUse"
       id="EMFhbasepattern-27" />
    <pattern
       y="0"
       x="0"
       height="6"
       width="6"
       patternUnits="userSpaceOnUse"
       id="EMFhbasepattern-09" />
    <pattern
       y="0"
       x="0"
       height="6"
       width="6"
       patternUnits="userSpaceOnUse"
       id="EMFhbasepattern-5" />
    <pattern
       y="0"
       x="0"
       height="6"
       width="6"
       patternUnits="userSpaceOnUse"
       id="EMFhbasepattern-018" />
  </defs>
  <sodipodi:namedview
     inkscape:document-rotation="0"
     inkscape:snap-global="true"
     inkscape:snap-nodes="false"
     inkscape:bbox-nodes="true"
     inkscape:snap-bbox="true"
     showguides="true"
     inkscape:snap-midpoints="true"
     inkscape:snap-smooth-nodes="true"
     inkscape:snap-intersection-paths="true"
     inkscape:object-paths="true"
     inkscape:showpageshadow="false"
     inkscape:pagecheckerboard="true"
     inkscape:window-maximized="1"
     inkscape:window-y="-8"
     inkscape:window-x="-8"
     inkscape:window-height="706"
     inkscape:window-width="1366"
     units="pt"
     showgrid="false"
     inkscape:current-layer="layer1"
     inkscape:document-units="pt"
     inkscape:cy="42.56527"
     inkscape:cx="42.682208"
     inkscape:zoom="4.2757863"
     inkscape:pageshadow="2"
     inkscape:pageopacity="0.0"
     borderopacity="1.0"
     bordercolor="#666666"
     pagecolor="#ffffff"
     id="base">
    <inkscape:grid
       id="grid1378"
       type="xygrid" />
    <sodipodi:guide
       inkscape:locked="false"
       id="guide1380"
       orientation="78.000048,0"
       position="0.97013831,21.607643" />
    <sodipodi:guide
       inkscape:locked="false"
       id="guide1382"
       orientation="0,78.000005"
       position="0.97013831,0.97013129" />
    <sodipodi:guide
       inkscape:locked="false"
       id="guide1384"
       orientation="-78.000048,0"
       position="21.607639,0.97013129" />
    <sodipodi:guide
       inkscape:locked="false"
       id="guide1386"
       orientation="0,-78.000005"
       position="21.607639,21.607643" />
  </sodipodi:namedview>
  <metadata
     id="metadata828">
    <rdf:RDF>
      <cc:Work
         rdf:about="">
        <dc:format>image/svg+xml</dc:format>
        <dc:type
           rdf:resource="http://purl.org/dc/dcmitype/StillImage" />
        <dc:title></dc:title>
      </cc:Work>
    </rdf:RDF>
  </metadata>
  <g
     transform="translate(0,-274.42223)"
     id="layer1"
     inkscape:groupmode="layer"
     inkscape:label="Icon">
    <g
       transform="matrix(1.2580231,0,0,1.2580231,77.383103,-192.39074)"
       style="display:inline;stroke-width:0.794898"
       id="g1483">
      <g
         style="stroke-width:0.794898"
         id="g36206">
        <path
           id="path111049"
           d="m -53.117187,371.83984 c -0.73489,0 -1.33175,0.60047 -1.337891,1.33399 -0.50114,0.13742 -0.979203,0.32824 -1.429688,0.5664 -0.07053,-0.0705 -0.141966,-0.14195 -0.310546,-0.31054 -0.522241,-0.52223 -1.377922,-0.52214 -1.900391,0 -0.240738,0.241 -0.507055,0.50732 -0.748047,0.74804 -0.522145,0.52247 -0.522239,1.3762 0,1.89844 0.12997,0.12997 0.171981,0.17198 0.234375,0.23438 -0.341944,0.55814 -0.609006,1.16473 -0.787109,1.81054 h -0.002 c -0.738672,0 -1.341797,0.60509 -1.341797,1.34375 v 1.05664 c 0,0.73867 0.603125,1.34375 1.341797,1.34375 h 0.002 c 0.178088,0.64636 0.444924,1.25199 0.787109,1.81055 -0.06239,0.0624 -0.104405,0.10441 -0.234375,0.23438 -0.522239,0.52224 -0.522145,1.37792 0,1.90039 0.240992,0.24072 0.507309,0.50704 0.748047,0.74804 0.522469,0.52214 1.37815,0.52224 1.900391,0 0.172821,-0.17283 0.250158,-0.25015 0.318359,-0.31836 0.584048,0.28738 1.330292,0.51316 1.898437,0.65039 a 0.26460996,0.26460996 0 0 0 0.06055,0.008 h 3.3125 a 0.26460996,0.26460996 0 0 0 0.0625,-0.008 c 0.58384,-0.14102 0.924927,-0.3777 1.359375,-0.63281 0.07306,0.0731 0.137503,0.1375 0.300782,0.30078 0.52224,0.52223 1.377921,0.52214 1.90039,0 0.240738,-0.241 0.507055,-0.50732 0.748047,-0.74804 0.522145,-0.52247 0.522239,-1.37815 0,-1.90039 -0.12997,-0.12997 -0.171981,-0.17198 -0.234375,-0.23438 0.342185,-0.55856 0.609021,-1.16419 0.787109,-1.81055 h 0.002 c 0.738671,0 1.341796,-0.60508 1.341796,-1.34375 v -1.05664 c 0,-0.73866 -0.603125,-1.34375 -1.341796,-1.34375 h -0.002 c -0.178103,-0.64581 -0.445165,-1.2524 -0.787109,-1.81054 0.06239,-0.0624 0.104405,-0.10441 0.234375,-0.23438 0.522239,-0.52224 0.522145,-1.37597 0,-1.89844 -0.240992,-0.24072 -0.507309,-0.50704 -0.748047,-0.74804 -0.522469,-0.52214 -1.37815,-0.52223 -1.90039,0 -0.16858,0.16859 -0.240016,0.24001 -0.310547,0.31054 -0.450485,-0.23816 -0.928548,-0.42898 -1.429688,-0.5664 -0.0061,-0.73352 -0.603001,-1.33399 -1.33789,-1.33399 z"
           style="color:#000000;clip-rule:evenodd;fill:#aabfd0;fill-opacity:1;fill-rule:evenodd;stroke-width:0.794898;stroke-linecap:round;stroke-linejoin:round;stroke-miterlimit:1.5" />
        <path
           d="m -53.117171,371.83987 c -0.734891,0 -1.331762,0.60025 -1.337903,1.33377 -0.501142,0.13742 -0.979403,0.32821 -1.429888,0.56638 -0.07053,-0.0705 -0.141996,-0.14199 -0.310576,-0.31058 -0.52224,-0.52223 -1.377672,-0.52214 -1.900142,0 -0.240736,0.241 -0.507283,0.50755 -0.748273,0.74827 -0.522148,0.52247 -0.52224,1.37636 0,1.89859 0.129968,0.12998 0.172217,0.1717 0.234611,0.2341 -0.0071,0.0116 -0.01365,0.0235 -0.02066,0.0351 a 8.7878113,8.7878113 0 0 1 0.750342,-0.0351 8.7878113,8.7878113 0 0 1 8.787578,8.78809 8.7878113,8.7878113 0 0 1 -0.08217,1.16841 c 0.07039,0.0704 0.133226,0.13322 0.291455,0.29145 0.52224,0.52223 1.377675,0.52214 1.900142,0 0.240739,-0.24099 0.507283,-0.50703 0.748276,-0.74775 0.522145,-0.52247 0.52224,-1.37842 0,-1.90066 -0.129971,-0.12997 -0.172217,-0.1717 -0.234611,-0.2341 0.342186,-0.55856 0.60946,-1.16438 0.787548,-1.81074 h 0.0021 c 0.738669,0 1.341519,-0.60492 1.341519,-1.34359 v -1.05678 c 0,-0.73866 -0.60285,-1.34359 -1.341519,-1.34359 h -0.0021 c -0.178102,-0.64581 -0.445603,-1.2526 -0.787548,-1.81074 0.06239,-0.0624 0.10464,-0.10412 0.234611,-0.2341 0.52224,-0.52223 0.522145,-1.37612 0,-1.89859 -0.240993,-0.24072 -0.507537,-0.50727 -0.748276,-0.74827 -0.522467,-0.52214 -1.377902,-0.52223 -1.900142,0 -0.168579,0.16859 -0.240043,0.24005 -0.310573,0.31058 -0.450485,-0.23817 -0.928749,-0.42896 -1.429888,-0.56638 -0.0061,-0.73352 -0.603015,-1.33377 -1.337903,-1.33377 z"
           style="color:#000000;clip-rule:evenodd;fill:#87a4ba;fill-opacity:1;fill-rule:evenodd;stroke-width:0.794898;stroke-linecap:round;stroke-linejoin:round;stroke-miterlimit:1.5"
           id="path136173" />
        <path
           id="path111057"
           d="m -52.539062,374.27539 c -3.063798,0 -5.556641,2.49286 -5.556641,5.55664 0,3.06378 2.492843,5.55664 5.556641,5.55664 3.063796,0 5.55664,-2.49286 5.55664,-5.55664 0,-3.06378 -2.492844,-5.55664 -5.55664,-5.55664 z"
           style="color:#000000;clip-rule:evenodd;fill:#526e82;fill-rule:evenodd;stroke-width:0.794898;stroke-linecap:round;stroke-linejoin:round;stroke-miterlimit:1.5" />
        <path
           id="path111065"
           d="m -50.494141,378.08594 c -0.153441,0.10158 -0.232905,0.28795 -0.197265,0.46875 l -0.002,-0.008 c 0.09798,0.59606 -0.08352,1.20362 -0.492188,1.64844 -0.263285,0.28706 -0.590819,0.57949 -0.875,0.66602 a 0.26460996,0.26460996 0 0 0 0.0059,0.50781 c 0.97528,0.27681 1.987157,0.28707 2.982421,-0.18945 a 0.26460996,0.26460996 0 0 0 0.142579,-0.17383 c 0.05325,-0.21508 0.08203,-0.43923 0.08203,-0.66992 0,-0.91571 -0.444586,-1.73241 -1.128906,-2.24024 a 0.26460996,0.26460996 0 0 0 -0.0098,-0.006 c -0.152015,-0.10384 -0.353714,-0.10547 -0.507813,-0.004 z"
           style="color:#000000;clip-rule:evenodd;fill:#bdc3b2;fill-opacity:1;fill-rule:evenodd;stroke-width:0.794898;stroke-linecap:round;stroke-linejoin:round;stroke-miterlimit:1.5" />
        <path
           sodipodi:nodetypes="cccccscccccscsssssccc"
           id="path111073"
           d="m -48.865761,380.65153 c 0,0 -1.348472,0.10518 -2.476023,0.1925 -1.16475,0.091 -1.579533,-0.17781 -2.083984,-0.71289 -0.476527,-0.50572 -0.698433,-1.20029 -0.603516,-1.88867 7.08e-4,-0.003 0.0014,-0.005 0.002,-0.008 0.02776,-0.26037 0.05131,-0.48955 0.07031,-0.66015 0.0185,-0.16613 0.03413,-0.28717 0.03516,-0.29492 0.04227,-0.21746 -0.05143,-0.44083 -0.236328,-0.5625 l -6.1e-5,-1e-4 c -0.184893,-0.12148 -0.428372,-0.11953 -0.611328,0.006 l -0.0078,0.006 c -0.97806,0.72561 -1.613281,1.89204 -1.613281,3.20117 0,1.56675 0.943362,2.88175 2.263672,3.53125 v 2.93164 c 0,0.30406 0.06193,0.74804 0.333984,1.14258 0.272052,0.39453 0.773171,0.70898 1.517578,0.70898 0.744408,0 1.24748,-0.31445 1.519532,-0.70898 0.272051,-0.39454 0.333984,-0.83852 0.333984,-1.14258 v -3.08203 c 0.731452,-0.51594 1.244061,-1.40997 1.490234,-2.29688 z"
           style="color:#000000;clip-rule:evenodd;fill:#f5f6e8;fill-rule:evenodd;stroke-width:0.794898;stroke-linecap:round;stroke-linejoin:round;stroke-miterlimit:1.5" />
        <path
           d="m -52.538672,374.27538 c -1.801146,0 -3.404897,0.86159 -4.420918,2.19418 0.934183,-0.71226 2.099932,-1.13585 3.362585,-1.13585 3.063798,0 5.55625,2.49299 5.55625,5.55677 0,1.26265 -0.423588,2.42789 -1.135846,3.36207 1.33259,-1.01602 2.194179,-2.61926 2.194179,-4.4204 0,-3.06378 -2.492452,-5.55677 -5.55625,-5.55677 z"
           style="color:#000000;clip-rule:evenodd;fill:#3a4d5c;fill-opacity:1;fill-rule:evenodd;stroke-width:0.794898;stroke-linecap:round;stroke-linejoin:round;stroke-miterlimit:1.5"
           id="path114283" />
        <path
           id="path78375"
           d="m -52.275391,382.1582 a 0.2645835,0.2645835 0 0 0 -0.263671,0.26563 v 0.26367 a 0.2645835,0.2645835 0 0 0 0.263671,0.26562 0.2645835,0.2645835 0 0 0 0.265625,-0.26562 v -0.26367 a 0.2645835,0.2645835 0 0 0 -0.265625,-0.26563 z"
           style="color:#000000;clip-rule:evenodd;fill:#3a4d5c;fill-opacity:1;fill-rule:evenodd;stroke-width:0.794898;stroke-linecap:round;stroke-linejoin:round;stroke-miterlimit:1.5" />
        <path
           id="path80993"
           d="m -51.480469,382.1582 a 0.2645835,0.2645835 0 0 0 -0.265625,0.26563 v 0.26367 a 0.2645835,0.2645835 0 0 0 0.265625,0.26562 0.2645835,0.2645835 0 0 0 0.263672,-0.26562 v -0.26367 a 0.2645835,0.2645835 0 0 0 -0.263672,-0.26563 z"
           style="color:#000000;clip-rule:evenodd;fill:#3a4d5c;fill-opacity:1;fill-rule:evenodd;stroke-width:0.794898;stroke-linecap:round;stroke-linejoin:round;stroke-miterlimit:1.5" />
        <path
           id="path80995"
           d="m -53.068359,382.1582 a 0.2645835,0.2645835 0 0 0 -0.263672,0.26563 v 0.26367 a 0.2645835,0.2645835 0 0 0 0.263672,0.26562 0.2645835,0.2645835 0 0 0 0.265625,-0.26562 v -0.26367 a 0.2645835,0.2645835 0 0 0 -0.265625,-0.26563 z"
           style="color:#000000;clip-rule:evenodd;fill:#3a4d5c;fill-opacity:1;fill-rule:evenodd;stroke-width:0.794898;stroke-linecap:round;stroke-linejoin:round;stroke-miterlimit:1.5" />
        <path
           id="path111009"
           d="m -52.275391,385.59766 c -0.435243,0 -0.792971,0.35967 -0.792968,0.79492 5e-6,0.43524 0.35773,0.79297 0.792968,0.79297 0.435238,0 0.794917,-0.35773 0.794922,-0.79297 3e-6,-0.43525 -0.359678,-0.79492 -0.794922,-0.79492 z"
           style="color:#000000;fill:#3a4d5c;fill-opacity:1;stroke-width:0.794898;stroke-linecap:round;stroke-linejoin:round;stroke-miterlimit:1.5" />
        <path
           sodipodi:nodetypes="ccccssscc"
           transform="matrix(0.26458334,0,0,0.26458334,0,280.06666)"
           d="m -192.37109,391.27728 c 0,0 -10e-4,5.21646 0,6.75397 2.2e-4,8.0265 -3.92358,8.7638 -8.76368,8.76367 -0.62591,-10e-4 -1.24991,-0.0691 -1.86132,-0.20312 1.07946,1.29233 2.87087,2.26953 5.41992,2.26953 2.81351,0 4.71396,-1.18855 5.74219,-2.67969 1.02822,-1.49117 1.26367,-3.16916 1.26367,-4.31836 v -11.64946 z"
           style="fill:#bdc3b2;fill-opacity:1;stroke:none;stroke-width:1.5898;stroke-linecap:round;stroke-linejoin:round;stroke-miterlimit:1.5;stroke-opacity:1"
           id="path200949" />
      </g>
      <path
         sodipodi:nodetypes="scccccsccssssccsccscscsccsccsccccssssccccscccccccsssscccccccsccccssssccccsccsccscscsccsccssssccsccsccssssscccssssscccssscccscssssscccsccccccccccccccccccccccsssssccscccccccccsccccsccsccssccsccssccsccsssscssssss"
         d="m -53.117172,371.83987 c -0.734891,0 -1.331762,0.60025 -1.337903,1.33377 -0.501142,0.13742 -0.979402,0.32821 -1.429887,0.56638 -0.07053,-0.0705 -0.141997,-0.14199 -0.310576,-0.31058 -0.52224,-0.52223 -1.377672,-0.52214 -1.900143,0 -0.240736,0.241 -0.507282,0.50755 -0.748273,0.74827 -0.522147,0.52247 -0.52224,1.37636 0,1.89859 0.129969,0.12998 0.172217,0.1717 0.234611,0.2341 -0.341944,0.55814 -0.60893,1.16493 -0.787032,1.81074 h -0.0021 c -0.738671,0 -1.342035,0.60493 -1.342035,1.34359 v 1.05678 c 0,0.73867 0.603364,1.34359 1.342035,1.34359 h 0.0021 c 0.178086,0.64636 0.444847,1.25218 0.787032,1.81074 -0.06239,0.0624 -0.10464,0.10413 -0.234611,0.2341 -0.52224,0.52224 -0.522145,1.37819 0,1.90066 0.240991,0.24072 0.507537,0.50676 0.748273,0.74775 0.522471,0.52214 1.377903,0.52224 1.900143,0 0.162218,-0.16222 0.225695,-0.22518 0.299207,-0.29868 0.226634,0.12001 0.45472,0.23692 0.695047,0.33227 0.135996,0.0539 0.289946,-0.0128 0.343648,-0.14883 0.05399,-0.13585 -0.01244,-0.28973 -0.148309,-0.34364 -0.281755,-0.11178 -0.553233,-0.24248 -0.814422,-0.39068 -0.103756,-0.059 -0.234148,-0.0412 -0.318325,0.0434 0,0 -0.197179,0.19717 -0.431499,0.4315 -0.319955,0.31995 -0.830075,0.32005 -1.150318,0 -0.240888,-0.24115 -0.507122,-0.5074 -0.748276,-0.74828 -0.320048,-0.32024 -0.319953,-0.83036 0,-1.15031 0.198215,-0.19821 0.357603,-0.3576 0.357603,-0.3576 0.08807,-0.0889 0.101864,-0.22727 0.03307,-0.33177 -0.407881,-0.62068 -0.713229,-1.31461 -0.892452,-2.05672 -0.02851,-0.11927 -0.135234,-0.20332 -0.257866,-0.20309 h -0.170016 c -0.452662,0 -0.814419,-0.36176 -0.814419,-0.81442 v -1.05678 c 0,-0.45265 0.361757,-0.81442 0.814419,-0.81442 h 0.170016 c 0.122632,2.3e-4 0.229354,-0.0838 0.257866,-0.20309 0.179223,-0.74212 0.484571,-1.43398 0.892452,-2.05465 0.06993,-0.10494 0.05609,-0.24466 -0.03307,-0.33383 0,0 -0.159388,-0.15733 -0.357603,-0.35554 -0.319956,-0.31995 -0.320048,-0.83213 0,-1.15238 0.241154,-0.24088 0.507388,-0.50712 0.748276,-0.74828 0.320243,-0.32004 0.830363,-0.31994 1.150318,0 0.23432,0.23434 0.431499,0.43202 0.431499,0.43202 0.0843,0.0844 0.214682,0.10199 0.318325,0.0429 0.522375,-0.29639 1.089382,-0.52364 1.687753,-0.66818 0.118523,-0.0283 0.20237,-0.13394 0.203089,-0.25579 v -0.17002 c 0,-0.45266 0.359688,-0.81442 0.812353,-0.81442 h 1.156002 c 0.452662,0 0.812869,0.36176 0.812869,0.81442 v 0.17002 c 7.93e-4,0.12185 0.08457,0.22747 0.203088,0.25579 0.598372,0.14454 1.16486,0.37179 1.687235,0.66818 0.103645,0.0591 0.234024,0.0415 0.318328,-0.0429 0,0 0.197694,-0.19768 0.432015,-0.43202 0.319955,-0.31994 0.830074,-0.32004 1.150318,0 0.240885,0.24116 0.506606,0.5074 0.747758,0.74828 0.32005,0.32025 0.319955,0.83243 0,1.15238 -0.198213,0.19821 -0.357085,0.35554 -0.357085,0.35554 -0.08933,0.089 -0.103388,0.22877 -0.03359,0.33383 0.407882,0.62067 0.713746,1.31253 0.892969,2.05465 0.02851,0.11927 0.135234,0.20332 0.257866,0.20309 h 0.169497 c 0.452663,0 0.814422,0.36177 0.814422,0.81442 v 1.05678 c 0,0.45266 -0.361759,0.81442 -0.814422,0.81442 h -0.169497 c -0.122632,-2.3e-4 -0.229354,0.0838 -0.257866,0.20309 -0.179223,0.74211 -0.485087,1.43604 -0.892969,2.05672 -0.06866,0.10462 -0.05464,0.24303 0.03359,0.33177 0,0 0.158872,0.15939 0.357085,0.3576 0.319955,0.31995 0.32005,0.83007 0,1.15031 -0.241152,0.24088 -0.506873,0.50713 -0.747758,0.74828 -0.320244,0.32005 -0.830363,0.31995 -1.150318,0 -0.234321,-0.23433 -0.432015,-0.4315 -0.432015,-0.4315 -0.08418,-0.0846 -0.214571,-0.10238 -0.318328,-0.0434 -0.261189,0.1482 -0.374481,0.20014 -0.656235,0.31192 -0.135882,0.0539 -0.202298,0.20779 -0.148312,0.34364 0.0537,0.13609 0.207652,0.20276 0.343648,0.14883 0.240327,-0.0953 0.310748,-0.1335 0.537382,-0.25351 0.07351,0.0735 0.13647,0.13646 0.298688,0.29868 0.52224,0.52223 1.377675,0.52214 1.900143,0 0.240739,-0.24099 0.507283,-0.50703 0.748276,-0.74775 0.522144,-0.52247 0.52224,-1.37842 0,-1.90066 -0.129971,-0.12997 -0.172218,-0.1717 -0.234612,-0.2341 0.342186,-0.55856 0.60946,-1.16438 0.787549,-1.81074 h 0.0016 c 0.738672,0 1.342038,-0.60492 1.342038,-1.34359 v -1.05678 c 0,-0.73866 -0.603366,-1.34359 -1.342038,-1.34359 h -0.0016 c -0.178102,-0.64581 -0.445604,-1.2526 -0.787549,-1.81074 0.06239,-0.0624 0.104641,-0.10412 0.234612,-0.2341 0.52224,-0.52223 0.522144,-1.37612 0,-1.89859 -0.240993,-0.24072 -0.507537,-0.50727 -0.748276,-0.74827 -0.522468,-0.52214 -1.377903,-0.52223 -1.900143,0 -0.168579,0.16859 -0.240043,0.24005 -0.310573,0.31058 -0.450485,-0.23817 -0.928748,-0.42896 -1.429888,-0.56638 -0.0061,-0.73352 -0.603014,-1.33377 -1.337902,-1.33377 z m 0.578258,2.43551 c -3.063796,0 -5.556767,2.49299 -5.556767,5.55677 0,1.12687 0.337887,2.17803 0.916223,3.05459 0.289169,0.43827 0.638636,0.83385 1.03663,1.17358 0.111017,0.0951 0.278075,0.0821 0.373105,-0.0289 0.09506,-0.11102 0.0821,-0.27808 -0.02894,-0.37311 -0.360328,-0.30757 -0.677781,-0.66584 -0.939477,-1.06246 -0.523386,-0.79328 -0.828374,-1.74213 -0.828374,-2.76366 0,-2.77737 2.250237,-5.0276 5.0276,-5.0276 2.777363,0 5.027083,2.25023 5.027083,5.0276 0,1.02153 -0.304467,1.97038 -0.827855,2.76366 -0.261694,0.39662 -0.577083,0.75489 -0.937411,1.06246 -0.111831,0.0943 -0.125952,0.2614 -0.03152,0.37311 0.09503,0.11104 0.262088,0.12399 0.373105,0.0289 0.397991,-0.33973 0.747974,-0.73531 1.037145,-1.17358 0.57834,-0.87656 0.915705,-1.92772 0.915705,-3.05459 0,-3.06378 -2.492452,-5.55677 -5.55625,-5.55677 z m -1.925463,2.3518 c -0.106852,10e-4 -0.213929,0.0328 -0.305409,0.0956 -0.0026,0.002 -0.0052,0.004 -0.0078,0.006 -0.978062,0.72561 -1.612824,1.89171 -1.612824,3.20084 0,1.56675 0.943118,2.88206 2.263429,3.53156 v 2.93161 c 0,0.30406 0.06178,0.74803 0.33383,1.14256 0.272053,0.39454 0.77333,0.70901 1.517737,0.70901 0.744408,0 1.247236,-0.31447 1.519288,-0.70901 0.27205,-0.39453 0.334346,-0.8385 0.334346,-1.14256 V 383.311 c 0.731451,-0.51595 1.244174,-1.41011 1.490348,-2.29702 l 0.0016,-0.008 c 0.05325,-0.21508 0.08217,-0.43903 0.08217,-0.66972 0,-0.91571 -0.444812,-1.73286 -1.129131,-2.24069 -0.0032,-0.002 -0.0065,-0.004 -0.0098,-0.006 -0.152016,-0.10384 -0.353364,-0.10561 -0.507463,-0.004 v 5.3e-4 c -0.15344,0.10158 -0.233045,0.2879 -0.197403,0.4687 l -0.0021,-0.008 c 0.09798,0.59606 -0.08329,1.20366 -0.491959,1.64848 -0.254135,0.27708 -0.568341,0.5592 -0.845426,0.65629 -0.668935,-0.0526 -1.005292,-0.30675 -1.394748,-0.71985 -0.476528,-0.50573 -0.698497,-1.2004 -0.603581,-1.88878 7.94e-4,-0.003 0.0013,-0.006 0.0021,-0.008 0.03444,-0.32995 0.06599,-0.63062 0.105421,-0.95498 0.04227,-0.21747 -0.05126,-0.44057 -0.236162,-0.56224 l -5.29e-4,-5.3e-4 c -0.09245,-0.0607 -0.199073,-0.0904 -0.305925,-0.0894 z m -0.08838,1.5426 c -0.116753,0.84673 0.156033,1.7004 0.742071,2.32234 0.866297,0.82538 1.805041,0.8791 2.509925,0.8791 0.853274,-0.066 1.284301,-0.0992 1.615406,-0.12505 -0.273211,0.69923 -0.624784,1.43734 -1.13688,1.74407 -0.07997,0.0476 -0.129027,0.13378 -0.129194,0.22687 v 3.17551 c 0,0.22509 -0.05573,0.57491 -0.239778,0.84181 -0.184047,0.26691 -0.477978,0.48059 -1.08417,0.48059 -0.606192,0 -0.898057,-0.21368 -1.082106,-0.48059 -0.184047,-0.2669 -0.240295,-0.61672 -0.240295,-0.84181 v -3.04122 c 2.65e-4,-0.10607 -0.06274,-0.20207 -0.160197,-0.24392 -1.235126,-0.52618 -2.103231,-1.74887 -2.103231,-3.17758 0,-1.13574 0.548827,-2.14 1.394229,-2.76986 0.0029,-0.002 0.0058,-0.003 0.0088,-0.004 l -8e-6,-8e-5 c 0.0029,-5.3e-4 0.0058,7e-5 0.0088,0.002 0.0072,0.005 0.0094,0.0106 0.0078,0.0191 l -0.0016,0.008 c -0.01011,0.061 -0.02011,0.15814 -0.03928,0.33022 z m 4.369244,0.47846 c 0.478896,0.41416 0.80667,1.00417 0.80667,1.68775 0,0.12214 -0.01021,0.24128 -0.02894,0.35761 -0.139073,0.0108 -0.815356,0.0635 -1.648995,0.12815 0.09334,-0.0902 0.180012,-0.18209 0.259932,-0.26923 0.474999,-0.51702 0.671222,-1.21066 0.611333,-1.90428 z m -2.885096,3.50986 c -0.146126,5.3e-4 -0.26412,0.1195 -0.263548,0.26562 v 0.26355 c -5.3e-4,0.14613 0.117422,0.26505 0.263548,0.26562 0.146934,5.3e-4 0.266195,-0.11868 0.265618,-0.26562 v -0.26355 c 5.29e-4,-0.14693 -0.118684,-0.26619 -0.265618,-0.26562 z m 0.793234,0 c -0.146126,5.3e-4 -0.264123,0.1195 -0.263551,0.26562 v 0.26355 c -5.29e-4,0.14613 0.117425,0.26505 0.263551,0.26562 0.146934,5.3e-4 0.266192,-0.11868 0.265616,-0.26562 v -0.26355 c 5.29e-4,-0.14693 -0.118682,-0.26619 -0.265616,-0.26562 z m 0.794782,0 c -0.146933,-5.2e-4 -0.266192,0.11869 -0.265615,0.26562 v 0.26355 c -5.29e-4,0.14694 0.118682,0.26619 0.265615,0.26562 0.146127,-5.3e-4 0.264123,-0.11949 0.263552,-0.26562 v -0.26355 c 5.29e-4,-0.14612 -0.117425,-0.26505 -0.263552,-0.26562 z m -1.588016,4.23437 c 0,0.43524 0.357992,0.79324 0.793234,0.79324 0.435243,0 0.794782,-0.358 0.794782,-0.79324 0,-0.43524 -0.354081,-0.79478 -0.794774,-0.78928 -0.440692,0.006 -0.793242,0.36084 -0.793242,0.78928 z m 0.793242,-0.26561 c 0.14926,0 0.265616,0.11635 0.265616,0.26561 0,0.14926 -0.116356,0.26355 -0.265616,0.26355 -0.149259,0 -0.263551,-0.11429 -0.263551,-0.26355 0,-0.14926 0.114292,-0.26561 0.263551,-0.26561 z"
         style="color:#000000;clip-rule:evenodd;display:inline;fill:#000000;fill-rule:evenodd;stroke-width:0.794898;stroke-linecap:round;stroke-linejoin:round;stroke-miterlimit:1.5"
         id="path78369" />
    </g>
  </g>
</svg>
